# xmcd
#
# Track frame offsets:
#	150
#	12252
#	30402
#	46818
#	64404
#	80997
#	98110
#	118812
#	134725
#	151369
#	172065
#	190443
#	207778
#	227843
#	242632
#
# Disc length: 3500 seconds
#
# Revision: 1
# Processed by: cddbd v1.5.2PL0 Copyright (c) Steve Scherf et al.
# Submitted via: audiograbber 1.83.01
#
DISCID=d50daa0f
DTITLE=HOT COUNTRY HITS - CB VOL 218
DYEAR=1900
DGENRE=
TTITLE0=ROBINSON, CHARLES - I WANT YOU BAD
TTITLE1=YEARWOOD, TRISHA - I WOULD'VE LOVED YOU ANYWAY
TTITLE2=GILMAN, BILLY - THERE'S A HERO
TTITLE3=3 OF HEARTS - LOVE IS ENOUGH
TTITLE4=URBAN, KEITH - WHERE THE BLACKTOP ENDS
TTITLE5=WOMACK, LEE ANN - WHY THEY CALL IT FALLING
TTITLE6=WORLEY, DERYL - SECOND WIND
TTITLE7=THOMPSON, CYNDI - WHAT I REALLY MEANT TO SAY
TTITLE8=CYRUS, BILLY RAY - CRAZY 'BOUT YOU BABY
TTITLE9=MCCANN, LILA - COME A LITTLE CLOSER
TTITLE10=SHELDON, BLAKE - AUSTIN
TTITLE11=JOHNSON, CAROLYN, DAWN - COMPLICATED
TTITLE12=LONESTAR - I'M ALREADY THERE
TTITLE13=MORRISON/LEWIS - YOU WIN AGAIN
TTITLE14=RICH, JOHN - FOREVER LOVING YOU
EXTD=
EXTT0=
EXTT1=
EXTT2=
EXTT3=
EXTT4=
EXTT5=
EXTT6=
EXTT7=
EXTT8=
EXTT9=
EXTT10=
EXTT11=
EXTT12=
EXTT13=
EXTT14=
PLAYORDER=
